<svg xmlns="http://www.w3.org/2000/svg" width="128" height="128" viewBox="0 0 128 128" role="img" aria-labelledby="title">
  <title id="title">Photo location icon</title>
  <rect width="128" height="128" rx="24" fill="#E9F6F2"/>
  <path d="M30 40C30 36 33 33 37 32L53 28L76 35L94 30C98 29 102 32 102 36V88C102 92 99 95 95 96L76 101L53 94L34 99C30 100 26 97 26 93V41C26 40 28 40 30 40Z" fill="#FAFBF8"/>
  <path d="M53 30V94M76 36V99" stroke="#B5D9D2" stroke-width="3" stroke-linecap="round"/>
  <path d="M35 52C44 48 53 48 62 52C72 57 82 55 93 49" fill="none" stroke="#0E6B6F" stroke-width="5" stroke-linecap="round"/>
  <path d="M70 34C58 34 49 43 49 55C49 70 70 90 70 90C70 90 91 70 91 55C91 43 82 34 70 34Z" fill="#FF7A66"/>
  <circle cx="70" cy="55" r="11" fill="#FAFBF8"/>
  <circle cx="70" cy="55" r="6.5" fill="#21343A"/>
  <circle cx="67" cy="52" r="2" fill="#8ED7F4"/>
</svg>
